<svg width="33" height="32" viewBox="0 0 33 32" fill="none" xmlns="http://www.w3.org/2000/svg">
<rect width="32" height="32" transform="translate(0.5)" fill="white"/>
<path fill-rule="evenodd" clip-rule="evenodd" d="M0.5 16C0.5 7.16344 7.66344 0 16.5 0C25.3366 0 32.5 7.16344 32.5 16C32.5 24.8366 25.3366 32 16.5 32C7.66344 32 0.5 24.8366 0.5 16Z" fill="#333231"/>
<path fill-rule="evenodd" clip-rule="evenodd" d="M23.1677 10.4995C23.9021 10.701 24.4804 11.2948 24.6767 12.0488C25.0333 13.4153 25.0333 16.2666 25.0333 16.2666C25.0333 16.2666 25.0333 19.1178 24.6767 20.4845C24.4804 21.2385 23.9021 21.8322 23.1677 22.0338C21.8369 22.4 16.5 22.4 16.5 22.4C16.5 22.4 11.1631 22.4 9.83218 22.0338C9.09783 21.8322 8.5195 21.2385 8.32323 20.4845C7.96667 19.1178 7.96667 16.2666 7.96667 16.2666C7.96667 16.2666 7.96667 13.4153 8.32323 12.0488C8.5195 11.2948 9.09783 10.701 9.83218 10.4995C11.1631 10.1333 16.5 10.1333 16.5 10.1333C16.5 10.1333 21.8369 10.1333 23.1677 10.4995ZM14.9 13.8666V19.1999L19.1667 16.5333L14.9 13.8666Z" fill="white"/>
</svg>
