<svg width="17" height="17" viewBox="0 0 17 17" fill="none" xmlns="http://www.w3.org/2000/svg">
<path d="M8.46936 13.7127L12.4069 16.2127C12.9147 16.533 13.5397 16.0564 13.3912 15.4705L12.2506 10.9861C12.2198 10.8618 12.2247 10.7313 12.2648 10.6097C12.3048 10.488 12.3785 10.3802 12.4772 10.2986L16.0084 7.35328C16.4694 6.97047 16.235 6.19703 15.6334 6.15797L11.024 5.86109C10.8983 5.85377 10.7774 5.80998 10.6761 5.73506C10.5748 5.66014 10.4975 5.55734 10.4537 5.43922L8.73498 1.11109C8.68949 0.986016 8.6066 0.877969 8.49759 0.801619C8.38857 0.72527 8.2587 0.684315 8.12561 0.684315C7.99251 0.684315 7.86264 0.72527 7.75363 0.801619C7.64461 0.877969 7.56173 0.986016 7.51623 1.11109L5.79748 5.43922C5.75368 5.55734 5.67641 5.66014 5.57513 5.73506C5.47385 5.80998 5.35294 5.85377 5.22717 5.86109L0.617794 6.15797C0.0162319 6.19703 -0.218143 6.97047 0.242794 7.35328L3.77404 10.2986C3.87274 10.3802 3.94638 10.488 3.98646 10.6097C4.02655 10.7313 4.03145 10.8618 4.00061 10.9861L2.94592 15.1423C2.76623 15.8455 3.51623 16.4158 4.11779 16.033L7.78186 13.7127C7.8846 13.6473 8.00385 13.6126 8.12561 13.6126C8.24737 13.6126 8.36661 13.6473 8.46936 13.7127Z" fill="#FA8232"/>
</svg>
