<svg width="102" height="17" viewBox="0 0 102 17" fill="none" xmlns="http://www.w3.org/2000/svg">
<path d="M8.46936 13.7127L12.4069 16.2127C12.9147 16.533 13.5397 16.0564 13.3912 15.4705L12.2506 10.9861C12.2198 10.8618 12.2247 10.7313 12.2648 10.6097C12.3048 10.488 12.3785 10.3802 12.4772 10.2986L16.0084 7.35328C16.4694 6.97047 16.235 6.19703 15.6334 6.15797L11.024 5.86109C10.8983 5.85377 10.7774 5.80998 10.6761 5.73506C10.5748 5.66014 10.4975 5.55734 10.4537 5.43922L8.73498 1.11109C8.68949 0.986016 8.6066 0.877969 8.49759 0.801619C8.38857 0.72527 8.2587 0.684315 8.12561 0.684315C7.99251 0.684315 7.86264 0.72527 7.75363 0.801619C7.64461 0.877969 7.56173 0.986016 7.51623 1.11109L5.79748 5.43922C5.75368 5.55734 5.67641 5.66014 5.57513 5.73506C5.47385 5.80998 5.35294 5.85377 5.22717 5.86109L0.617794 6.15797C0.0162319 6.19703 -0.218143 6.97047 0.242794 7.35328L3.77404 10.2986C3.87274 10.3802 3.94638 10.488 3.98646 10.6097C4.02655 10.7313 4.03145 10.8618 4.00061 10.9861L2.94592 15.1423C2.76623 15.8455 3.51623 16.4158 4.11779 16.033L7.78186 13.7127C7.8846 13.6473 8.00385 13.6126 8.12561 13.6126C8.24737 13.6126 8.36661 13.6473 8.46936 13.7127Z" fill="#FA8232"/>
<path d="M29.7206 13.7127L33.6581 16.2127C34.1659 16.533 34.7909 16.0564 34.6425 15.4705L33.5018 10.9861C33.471 10.8618 33.4759 10.7313 33.516 10.6097C33.5561 10.488 33.6297 10.3802 33.7284 10.2986L37.2596 7.35328C37.7206 6.97047 37.4862 6.19703 36.8846 6.15797L32.2753 5.86109C32.1495 5.85377 32.0286 5.80998 31.9273 5.73506C31.826 5.66014 31.7488 5.55734 31.705 5.43922L29.9862 1.11109C29.9407 0.986016 29.8578 0.877969 29.7488 0.801619C29.6398 0.72527 29.5099 0.684315 29.3768 0.684315C29.2437 0.684315 29.1139 0.72527 29.0048 0.801619C28.8958 0.877969 28.8129 0.986016 28.7675 1.11109L27.0487 5.43922C27.0049 5.55734 26.9276 5.66014 26.8264 5.73506C26.7251 5.80998 26.6042 5.85377 26.4784 5.86109L21.869 6.15797C21.2675 6.19703 21.0331 6.97047 21.494 7.35328L25.0253 10.2986C25.124 10.3802 25.1976 10.488 25.2377 10.6097C25.2778 10.7313 25.2827 10.8618 25.2518 10.9861L24.1971 15.1423C24.0175 15.8455 24.7675 16.4158 25.369 16.033L29.0331 13.7127C29.1358 13.6473 29.2551 13.6126 29.3768 13.6126C29.4986 13.6126 29.6178 13.6473 29.7206 13.7127Z" fill="#FA8232"/>
<path d="M50.9718 13.7127L54.9093 16.2127C55.4171 16.533 56.0421 16.0564 55.8937 15.4705L54.753 10.9861C54.7222 10.8618 54.7271 10.7313 54.7672 10.6097C54.8073 10.488 54.8809 10.3802 54.9796 10.2986L58.5109 7.35328C58.9718 6.97047 58.7374 6.19703 58.1359 6.15797L53.5265 5.86109C53.4007 5.85377 53.2798 5.80998 53.1785 5.73506C53.0772 5.66014 53 5.55734 52.9562 5.43922L51.2374 1.11109C51.1919 0.986016 51.109 0.877969 51 0.801619C50.891 0.72527 50.7611 0.684315 50.628 0.684315C50.495 0.684315 50.3651 0.72527 50.2561 0.801619C50.1471 0.877969 50.0642 0.986016 50.0187 1.11109L48.2999 5.43922C48.2561 5.55734 48.1789 5.66014 48.0776 5.73506C47.9763 5.80998 47.8554 5.85377 47.7296 5.86109L43.1202 6.15797C42.5187 6.19703 42.2843 6.97047 42.7452 7.35328L46.2765 10.2986C46.3752 10.3802 46.4488 10.488 46.4889 10.6097C46.529 10.7313 46.5339 10.8618 46.503 10.9861L45.4484 15.1423C45.2687 15.8455 46.0187 16.4158 46.6202 16.033L50.2843 13.7127C50.387 13.6473 50.5063 13.6126 50.628 13.6126C50.7498 13.6126 50.8691 13.6473 50.9718 13.7127Z" fill="#FA8232"/>
<path d="M72.223 13.7127L76.1605 16.2127C76.6683 16.533 77.2933 16.0564 77.1449 15.4705L76.0043 10.9861C75.9734 10.8618 75.9783 10.7313 76.0184 10.6097C76.0585 10.488 76.1321 10.3802 76.2308 10.2986L79.7621 7.35328C80.223 6.97047 79.9886 6.19703 79.3871 6.15797L74.7777 5.86109C74.6519 5.85377 74.531 5.80998 74.4297 5.73506C74.3285 5.66014 74.2512 5.55734 74.2074 5.43922L72.4886 1.11109C72.4431 0.986016 72.3603 0.877969 72.2512 0.801619C72.1422 0.72527 72.0124 0.684315 71.8793 0.684315C71.7462 0.684315 71.6163 0.72527 71.5073 0.801619C71.3983 0.877969 71.3154 0.986016 71.2699 1.11109L69.5511 5.43922C69.5073 5.55734 69.4301 5.66014 69.3288 5.73506C69.2275 5.80998 69.1066 5.85377 68.9808 5.86109L64.3715 6.15797C63.7699 6.19703 63.5355 6.97047 63.9965 7.35328L67.5277 10.2986C67.6264 10.3802 67.7 10.488 67.7401 10.6097C67.7802 10.7313 67.7851 10.8618 67.7543 10.9861L66.6996 15.1423C66.5199 15.8455 67.2699 16.4158 67.8715 16.033L71.5355 13.7127C71.6383 13.6473 71.7575 13.6126 71.8793 13.6126C72.001 13.6126 72.1203 13.6473 72.223 13.7127Z" fill="#FA8232"/>
<path d="M93.4742 13.7127L97.4117 16.2127C97.9196 16.533 98.5446 16.0564 98.3961 15.4705L97.2555 10.9861C97.2246 10.8618 97.2296 10.7313 97.2696 10.6097C97.3097 10.488 97.3834 10.3802 97.4821 10.2986L101.013 7.35328C101.474 6.97047 101.24 6.19703 100.638 6.15797L96.0289 5.86109C95.9032 5.85377 95.7822 5.80998 95.681 5.73506C95.5797 5.66014 95.5024 5.55734 95.4586 5.43922L93.7399 1.11109C93.6944 0.986016 93.6115 0.877969 93.5025 0.801619C93.3935 0.72527 93.2636 0.684315 93.1305 0.684315C92.9974 0.684315 92.8675 0.72527 92.7585 0.801619C92.6495 0.877969 92.5666 0.986016 92.5211 1.11109L90.8024 5.43922C90.7586 5.55734 90.6813 5.66014 90.58 5.73506C90.4787 5.80998 90.3578 5.85377 90.2321 5.86109L85.6227 6.15797C85.0211 6.19703 84.7867 6.97047 85.2477 7.35328L88.7789 10.2986C88.8776 10.3802 88.9513 10.488 88.9913 10.6097C89.0314 10.7313 89.0363 10.8618 89.0055 10.9861L87.9508 15.1423C87.7711 15.8455 88.5211 16.4158 89.1227 16.033L92.7867 13.7127C92.8895 13.6473 93.0087 13.6126 93.1305 13.6126C93.2523 13.6126 93.3715 13.6473 93.4742 13.7127Z" fill="#FA8232"/>
</svg>
